<svg width="9" height="9" viewBox="0 0 9 9" fill="none" xmlns="http://www.w3.org/2000/svg">
<path d="M0.515149 7.66896C0.289847 7.89426 0.289847 8.25955 0.515149 8.48485C0.740452 8.71015 1.10574 8.71015 1.33104 8.48485L0.515149 7.66896ZM8.02716 1.54976C8.02716 1.23114 7.76886 0.972842 7.45024 0.972841L2.25793 0.972841C1.9393 0.972841 1.681 1.23114 1.681 1.54976C1.681 1.86839 1.9393 2.12669 2.25793 2.12669H6.87331V6.74207C6.87331 7.0607 7.13161 7.319 7.45024 7.319C7.76886 7.319 8.02716 7.0607 8.02716 6.74207L8.02716 1.54976ZM1.33104 8.48485L7.85818 1.95771L7.04229 1.14182L0.515149 7.66896L1.33104 8.48485Z" fill="#6A4BB4"/>
</svg>
